<mxfile host="app.diagrams.net" modified="2022-09-21T15:27:00.387Z" agent="5.0 (Windows NT 10.0; Win64; x64) AppleWebKit/537.36 (KHTML, like Gecko) Chrome/105.0.0.0 Safari/537.36" etag="qPDfoW82teB_qEIFx_K6" version="20.3.3" type="github">
  <diagram id="ZQxF-IaHPSeslvFUNxKx" name="PÃ¡gina-1">
    <mxGraphModel dx="1518" dy="1709" grid="1" gridSize="10" guides="1" tooltips="1" connect="1" arrows="1" fold="1" page="1" pageScale="1" pageWidth="827" pageHeight="1169" math="0" shadow="0">
      <root>
        <mxCell id="0" />
        <mxCell id="1" parent="0" />
        <mxCell id="fXN5BrU___m1bCXiDcGJ-24" style="edgeStyle=orthogonalEdgeStyle;rounded=0;orthogonalLoop=1;jettySize=auto;html=1;" edge="1" parent="1" source="fXN5BrU___m1bCXiDcGJ-1" target="fXN5BrU___m1bCXiDcGJ-13">
          <mxGeometry relative="1" as="geometry" />
        </mxCell>
        <mxCell id="fXN5BrU___m1bCXiDcGJ-1" value="Pizzeria" style="swimlane;fontStyle=1;align=center;verticalAlign=top;childLayout=stackLayout;horizontal=1;startSize=26;horizontalStack=0;resizeParent=1;resizeParentMax=0;resizeLast=0;collapsible=1;marginBottom=0;" vertex="1" parent="1">
          <mxGeometry x="-70" y="116" width="160" height="86" as="geometry" />
        </mxCell>
        <mxCell id="fXN5BrU___m1bCXiDcGJ-2" value="- nombre: String" style="text;strokeColor=none;fillColor=none;align=left;verticalAlign=top;spacingLeft=4;spacingRight=4;overflow=hidden;rotatable=0;points=[[0,0.5],[1,0.5]];portConstraint=eastwest;" vertex="1" parent="fXN5BrU___m1bCXiDcGJ-1">
          <mxGeometry y="26" width="160" height="26" as="geometry" />
        </mxCell>
        <mxCell id="fXN5BrU___m1bCXiDcGJ-3" value="" style="line;strokeWidth=1;fillColor=none;align=left;verticalAlign=middle;spacingTop=-1;spacingLeft=3;spacingRight=3;rotatable=0;labelPosition=right;points=[];portConstraint=eastwest;strokeColor=inherit;" vertex="1" parent="fXN5BrU___m1bCXiDcGJ-1">
          <mxGeometry y="52" width="160" height="8" as="geometry" />
        </mxCell>
        <mxCell id="fXN5BrU___m1bCXiDcGJ-4" value="+ method(type): type" style="text;strokeColor=none;fillColor=none;align=left;verticalAlign=top;spacingLeft=4;spacingRight=4;overflow=hidden;rotatable=0;points=[[0,0.5],[1,0.5]];portConstraint=eastwest;" vertex="1" parent="fXN5BrU___m1bCXiDcGJ-1">
          <mxGeometry y="60" width="160" height="26" as="geometry" />
        </mxCell>
        <mxCell id="fXN5BrU___m1bCXiDcGJ-23" style="edgeStyle=orthogonalEdgeStyle;rounded=0;orthogonalLoop=1;jettySize=auto;html=1;" edge="1" parent="1" source="fXN5BrU___m1bCXiDcGJ-5" target="fXN5BrU___m1bCXiDcGJ-13">
          <mxGeometry relative="1" as="geometry">
            <Array as="points">
              <mxPoint x="210" y="260" />
              <mxPoint x="314" y="260" />
            </Array>
          </mxGeometry>
        </mxCell>
        <mxCell id="fXN5BrU___m1bCXiDcGJ-5" value="PizzaSimple" style="swimlane;fontStyle=1;align=center;verticalAlign=top;childLayout=stackLayout;horizontal=1;startSize=26;horizontalStack=0;resizeParent=1;resizeParentMax=0;resizeLast=0;collapsible=1;marginBottom=0;" vertex="1" parent="1">
          <mxGeometry x="120" y="320" width="160" height="86" as="geometry" />
        </mxCell>
        <mxCell id="fXN5BrU___m1bCXiDcGJ-18" value="- esGrande: boolean" style="text;strokeColor=none;fillColor=none;align=left;verticalAlign=top;spacingLeft=4;spacingRight=4;overflow=hidden;rotatable=0;points=[[0,0.5],[1,0.5]];portConstraint=eastwest;" vertex="1" parent="fXN5BrU___m1bCXiDcGJ-5">
          <mxGeometry y="26" width="160" height="26" as="geometry" />
        </mxCell>
        <mxCell id="fXN5BrU___m1bCXiDcGJ-6" value="- precioBase: double" style="text;strokeColor=none;fillColor=none;align=left;verticalAlign=top;spacingLeft=4;spacingRight=4;overflow=hidden;rotatable=0;points=[[0,0.5],[1,0.5]];portConstraint=eastwest;" vertex="1" parent="fXN5BrU___m1bCXiDcGJ-5">
          <mxGeometry y="52" width="160" height="26" as="geometry" />
        </mxCell>
        <mxCell id="fXN5BrU___m1bCXiDcGJ-7" value="" style="line;strokeWidth=1;fillColor=none;align=left;verticalAlign=middle;spacingTop=-1;spacingLeft=3;spacingRight=3;rotatable=0;labelPosition=right;points=[];portConstraint=eastwest;strokeColor=inherit;" vertex="1" parent="fXN5BrU___m1bCXiDcGJ-5">
          <mxGeometry y="78" width="160" height="8" as="geometry" />
        </mxCell>
        <mxCell id="fXN5BrU___m1bCXiDcGJ-22" style="edgeStyle=orthogonalEdgeStyle;rounded=0;orthogonalLoop=1;jettySize=auto;html=1;" edge="1" parent="1" source="fXN5BrU___m1bCXiDcGJ-9" target="fXN5BrU___m1bCXiDcGJ-13">
          <mxGeometry relative="1" as="geometry">
            <Array as="points">
              <mxPoint x="380" y="260" />
              <mxPoint x="314" y="260" />
            </Array>
          </mxGeometry>
        </mxCell>
        <mxCell id="fXN5BrU___m1bCXiDcGJ-29" style="edgeStyle=orthogonalEdgeStyle;rounded=0;orthogonalLoop=1;jettySize=auto;html=1;" edge="1" parent="1" source="fXN5BrU___m1bCXiDcGJ-9" target="fXN5BrU___m1bCXiDcGJ-13">
          <mxGeometry relative="1" as="geometry">
            <mxPoint x="500" y="170" as="targetPoint" />
            <Array as="points">
              <mxPoint x="480" y="337" />
              <mxPoint x="480" y="159" />
            </Array>
          </mxGeometry>
        </mxCell>
        <mxCell id="fXN5BrU___m1bCXiDcGJ-9" value="PIzzaCombinada" style="swimlane;fontStyle=1;align=center;verticalAlign=top;childLayout=stackLayout;horizontal=1;startSize=26;horizontalStack=0;resizeParent=1;resizeParentMax=0;resizeLast=0;collapsible=1;marginBottom=0;" vertex="1" parent="1">
          <mxGeometry x="300" y="320" width="160" height="34" as="geometry" />
        </mxCell>
        <mxCell id="fXN5BrU___m1bCXiDcGJ-11" value="" style="line;strokeWidth=1;fillColor=none;align=left;verticalAlign=middle;spacingTop=-1;spacingLeft=3;spacingRight=3;rotatable=0;labelPosition=right;points=[];portConstraint=eastwest;strokeColor=inherit;" vertex="1" parent="fXN5BrU___m1bCXiDcGJ-9">
          <mxGeometry y="26" width="160" height="8" as="geometry" />
        </mxCell>
        <mxCell id="fXN5BrU___m1bCXiDcGJ-13" value="&lt;&lt;abstract&gt;&gt;&#xa;compositePizza" style="swimlane;fontStyle=1;align=center;verticalAlign=top;childLayout=stackLayout;horizontal=1;startSize=40;horizontalStack=0;resizeParent=1;resizeParentMax=0;resizeLast=0;collapsible=1;marginBottom=0;" vertex="1" parent="1">
          <mxGeometry x="214" y="96" width="200" height="126" as="geometry" />
        </mxCell>
        <mxCell id="fXN5BrU___m1bCXiDcGJ-17" value="- nombre: String" style="text;strokeColor=none;fillColor=none;align=left;verticalAlign=top;spacingLeft=4;spacingRight=4;overflow=hidden;rotatable=0;points=[[0,0.5],[1,0.5]];portConstraint=eastwest;" vertex="1" parent="fXN5BrU___m1bCXiDcGJ-13">
          <mxGeometry y="40" width="200" height="26" as="geometry" />
        </mxCell>
        <mxCell id="fXN5BrU___m1bCXiDcGJ-14" value="- descripcion: String" style="text;strokeColor=none;fillColor=none;align=left;verticalAlign=top;spacingLeft=4;spacingRight=4;overflow=hidden;rotatable=0;points=[[0,0.5],[1,0.5]];portConstraint=eastwest;" vertex="1" parent="fXN5BrU___m1bCXiDcGJ-13">
          <mxGeometry y="66" width="200" height="26" as="geometry" />
        </mxCell>
        <mxCell id="fXN5BrU___m1bCXiDcGJ-15" value="" style="line;strokeWidth=1;fillColor=none;align=left;verticalAlign=middle;spacingTop=-1;spacingLeft=3;spacingRight=3;rotatable=0;labelPosition=right;points=[];portConstraint=eastwest;strokeColor=inherit;" vertex="1" parent="fXN5BrU___m1bCXiDcGJ-13">
          <mxGeometry y="92" width="200" height="8" as="geometry" />
        </mxCell>
        <mxCell id="fXN5BrU___m1bCXiDcGJ-16" value="+ abstract calcularPrecio(): double" style="text;strokeColor=none;fillColor=none;align=left;verticalAlign=top;spacingLeft=4;spacingRight=4;overflow=hidden;rotatable=0;points=[[0,0.5],[1,0.5]];portConstraint=eastwest;" vertex="1" parent="fXN5BrU___m1bCXiDcGJ-13">
          <mxGeometry y="100" width="200" height="26" as="geometry" />
        </mxCell>
        <mxCell id="fXN5BrU___m1bCXiDcGJ-25" value="N" style="text;html=1;align=center;verticalAlign=middle;resizable=0;points=[];autosize=1;strokeColor=none;fillColor=none;" vertex="1" parent="1">
          <mxGeometry x="185" y="130" width="30" height="30" as="geometry" />
        </mxCell>
        <mxCell id="fXN5BrU___m1bCXiDcGJ-30" value="N" style="text;html=1;align=center;verticalAlign=middle;resizable=0;points=[];autosize=1;strokeColor=none;fillColor=none;" vertex="1" parent="1">
          <mxGeometry x="414" y="130" width="30" height="30" as="geometry" />
        </mxCell>
        <mxCell id="fXN5BrU___m1bCXiDcGJ-31" value="FactoryComPIzzas" style="swimlane;fontStyle=1;align=center;verticalAlign=top;childLayout=stackLayout;horizontal=1;startSize=26;horizontalStack=0;resizeParent=1;resizeParentMax=0;resizeLast=0;collapsible=1;marginBottom=0;" vertex="1" parent="1">
          <mxGeometry x="90" y="-100" width="200" height="138" as="geometry" />
        </mxCell>
        <mxCell id="fXN5BrU___m1bCXiDcGJ-35" value="- instance : FactoryComPizzas" style="text;strokeColor=none;fillColor=none;align=left;verticalAlign=top;spacingLeft=4;spacingRight=4;overflow=hidden;rotatable=0;points=[[0,0.5],[1,0.5]];portConstraint=eastwest;" vertex="1" parent="fXN5BrU___m1bCXiDcGJ-31">
          <mxGeometry y="26" width="200" height="26" as="geometry" />
        </mxCell>
        <mxCell id="fXN5BrU___m1bCXiDcGJ-33" value="" style="line;strokeWidth=1;fillColor=none;align=left;verticalAlign=middle;spacingTop=-1;spacingLeft=3;spacingRight=3;rotatable=0;labelPosition=right;points=[];portConstraint=eastwest;strokeColor=inherit;" vertex="1" parent="fXN5BrU___m1bCXiDcGJ-31">
          <mxGeometry y="52" width="200" height="8" as="geometry" />
        </mxCell>
        <mxCell id="fXN5BrU___m1bCXiDcGJ-36" value="- FactoryComPizzas()" style="text;strokeColor=none;fillColor=none;align=left;verticalAlign=top;spacingLeft=4;spacingRight=4;overflow=hidden;rotatable=0;points=[[0,0.5],[1,0.5]];portConstraint=eastwest;" vertex="1" parent="fXN5BrU___m1bCXiDcGJ-31">
          <mxGeometry y="60" width="200" height="26" as="geometry" />
        </mxCell>
        <mxCell id="fXN5BrU___m1bCXiDcGJ-39" value="+ getInstance(): FactoryComPizzas" style="text;strokeColor=none;fillColor=none;align=left;verticalAlign=top;spacingLeft=4;spacingRight=4;overflow=hidden;rotatable=0;points=[[0,0.5],[1,0.5]];portConstraint=eastwest;" vertex="1" parent="fXN5BrU___m1bCXiDcGJ-31">
          <mxGeometry y="86" width="200" height="26" as="geometry" />
        </mxCell>
        <mxCell id="fXN5BrU___m1bCXiDcGJ-34" value="+ crearPizza(): CompositePizza" style="text;strokeColor=none;fillColor=none;align=left;verticalAlign=top;spacingLeft=4;spacingRight=4;overflow=hidden;rotatable=0;points=[[0,0.5],[1,0.5]];portConstraint=eastwest;" vertex="1" parent="fXN5BrU___m1bCXiDcGJ-31">
          <mxGeometry y="112" width="200" height="26" as="geometry" />
        </mxCell>
        <mxCell id="fXN5BrU___m1bCXiDcGJ-37" value="" style="endArrow=block;dashed=1;endFill=0;endSize=12;html=1;rounded=0;" edge="1" parent="1" source="fXN5BrU___m1bCXiDcGJ-13" target="fXN5BrU___m1bCXiDcGJ-31">
          <mxGeometry width="160" relative="1" as="geometry">
            <mxPoint x="140" y="120" as="sourcePoint" />
            <mxPoint x="300" y="120" as="targetPoint" />
          </mxGeometry>
        </mxCell>
        <mxCell id="fXN5BrU___m1bCXiDcGJ-38" value="" style="endArrow=block;dashed=1;endFill=0;endSize=12;html=1;rounded=0;" edge="1" parent="1" source="fXN5BrU___m1bCXiDcGJ-1" target="fXN5BrU___m1bCXiDcGJ-31">
          <mxGeometry width="160" relative="1" as="geometry">
            <mxPoint x="141.30724137931045" y="144" as="sourcePoint" />
            <mxPoint x="89.99689655172418" y="59.99999999999977" as="targetPoint" />
          </mxGeometry>
        </mxCell>
      </root>
    </mxGraphModel>
  </diagram>
</mxfile>
